G04 DipTrace 2.4.0.2*
%INRtcV!.bottomsilkscreen.ger*%
%MOIN*%
%ADD29C,0.0087*%
%FSLAX44Y44*%
G04*
G70*
G90*
G75*
G01*
%LNBotSilk*%
%LPD*%
X8949Y5156D2*
D29*
Y5328D1*
X8968Y5385D1*
X8987Y5405D1*
X9025Y5424D1*
X9063D1*
X9101Y5405D1*
X9121Y5385D1*
X9140Y5328D1*
Y5156D1*
X8738D1*
X8949Y5290D2*
X8738Y5424D1*
X9140Y5733D2*
X8738D1*
X9140Y5599D2*
Y5867D1*
X9044Y6329D2*
X9082Y6310D1*
X9121Y6271D1*
X9140Y6233D1*
Y6157D1*
X9121Y6118D1*
X9082Y6080D1*
X9044Y6061D1*
X8987Y6042D1*
X8891D1*
X8834Y6061D1*
X8796Y6080D1*
X8757Y6118D1*
X8738Y6157D1*
Y6233D1*
X8757Y6271D1*
X8796Y6310D1*
X8834Y6329D1*
X9140Y7078D2*
X8738D1*
X9140Y6944D2*
Y7212D1*
X8891Y7387D2*
Y7616D1*
X8929D1*
X8968Y7597D1*
X8987Y7578D1*
X9006Y7540D1*
Y7482D1*
X8987Y7444D1*
X8949Y7406D1*
X8891Y7387D1*
X8853D1*
X8796Y7406D1*
X8757Y7444D1*
X8738Y7482D1*
Y7540D1*
X8757Y7578D1*
X8796Y7616D1*
X8949Y8002D2*
X8987Y7983D1*
X9006Y7925D1*
Y7868D1*
X8987Y7810D1*
X8949Y7791D1*
X8910Y7810D1*
X8891Y7849D1*
X8872Y7944D1*
X8853Y7983D1*
X8815Y8002D1*
X8796D1*
X8757Y7983D1*
X8738Y7925D1*
Y7868D1*
X8757Y7810D1*
X8796Y7791D1*
X9140Y8234D2*
X8815D1*
X8757Y8253D1*
X8738Y8292D1*
Y8330D1*
X9006Y8177D2*
Y8311D1*
X9140Y8945D2*
X8738D1*
Y9117D1*
X8757Y9175D1*
X8777Y9194D1*
X8815Y9213D1*
X8872D1*
X8910Y9194D1*
X8929Y9175D1*
X8949Y9117D1*
X8968Y9175D1*
X8987Y9194D1*
X9025Y9213D1*
X9063D1*
X9101Y9194D1*
X9121Y9175D1*
X9140Y9117D1*
Y8945D1*
X8949D2*
Y9117D1*
X9006Y9483D2*
X8987Y9445D1*
X8949Y9407D1*
X8891Y9388D1*
X8853D1*
X8796Y9407D1*
X8757Y9445D1*
X8738Y9483D1*
Y9541D1*
X8757Y9579D1*
X8796Y9617D1*
X8853Y9637D1*
X8891D1*
X8949Y9617D1*
X8987Y9579D1*
X9006Y9541D1*
Y9483D1*
Y10041D2*
X8738D1*
X8949D2*
X8987Y10003D1*
X9006Y9965D1*
Y9908D1*
X8987Y9869D1*
X8949Y9831D1*
X8891Y9812D1*
X8853D1*
X8796Y9831D1*
X8757Y9869D1*
X8738Y9908D1*
Y9965D1*
X8757Y10003D1*
X8796Y10041D1*
X9006Y10216D2*
X8738D1*
X8891D2*
X8949Y10236D1*
X8987Y10274D1*
X9006Y10312D1*
Y10370D1*
X9140Y10774D2*
X8738D1*
X8949D2*
X8987Y10736D1*
X9006Y10698D1*
Y10640D1*
X8987Y10602D1*
X8949Y10564D1*
X8891Y10545D1*
X8853D1*
X8796Y10564D1*
X8757Y10602D1*
X8738Y10640D1*
Y10698D1*
X8757Y10736D1*
X8796Y10774D1*
X9140Y11389D2*
X8738Y11542D1*
X9140Y11695D1*
X9063Y11870D2*
X9082Y11909D1*
X9140Y11966D1*
X8738D1*
X8777Y12160D2*
X8757Y12141D1*
X8738Y12160D1*
X8757Y12180D1*
X8777Y12160D1*
X9140Y12470D2*
X9121Y12412D1*
X9063Y12374D1*
X8968Y12355D1*
X8910D1*
X8815Y12374D1*
X8757Y12412D1*
X8738Y12470D1*
Y12508D1*
X8757Y12565D1*
X8815Y12603D1*
X8910Y12623D1*
X8968D1*
X9063Y12603D1*
X9121Y12565D1*
X9140Y12508D1*
Y12470D1*
X9063Y12603D2*
X8815Y12374D1*
X8131Y4939D2*
X7863Y5016D1*
X8131Y5092D1*
X7863Y5169D1*
X8131Y5245D1*
Y5420D2*
X7863Y5497D1*
X8131Y5573D1*
X7863Y5650D1*
X8131Y5726D1*
Y5901D2*
X7863Y5978D1*
X8131Y6054D1*
X7863Y6131D1*
X8131Y6207D1*
X7902Y6401D2*
X7882Y6382D1*
X7863Y6401D1*
X7882Y6421D1*
X7902Y6401D1*
X8131Y6825D2*
X7863D1*
X8074D2*
X8112Y6787D1*
X8131Y6749D1*
Y6692D1*
X8112Y6653D1*
X8074Y6615D1*
X8016Y6596D1*
X7978D1*
X7921Y6615D1*
X7882Y6653D1*
X7863Y6692D1*
Y6749D1*
X7882Y6787D1*
X7921Y6825D1*
X8265Y7000D2*
X7863D1*
X8131Y7405D2*
X7863D1*
X8074D2*
X8112Y7367D1*
X8131Y7328D1*
Y7271D1*
X8112Y7233D1*
X8074Y7195D1*
X8016Y7175D1*
X7978D1*
X7921Y7195D1*
X7882Y7233D1*
X7863Y7271D1*
Y7328D1*
X7882Y7367D1*
X7921Y7405D1*
X8265Y7580D2*
X8246Y7599D1*
X8265Y7618D1*
X8284Y7599D1*
X8265Y7580D1*
X8131Y7599D2*
X7863D1*
X8131Y7793D2*
X7863D1*
X8054D2*
X8112Y7851D1*
X8131Y7889D1*
Y7946D1*
X8112Y7985D1*
X8054Y8004D1*
X7863D1*
X8074Y8389D2*
X8112Y8370D1*
X8131Y8313D1*
Y8255D1*
X8112Y8198D1*
X8074Y8179D1*
X8035Y8198D1*
X8016Y8236D1*
X7997Y8332D1*
X7978Y8370D1*
X7940Y8389D1*
X7921D1*
X7882Y8370D1*
X7863Y8313D1*
Y8255D1*
X7882Y8198D1*
X7921Y8179D1*
X8131Y8564D2*
X7729D1*
X8074D2*
X8112Y8602D1*
X8131Y8641D1*
Y8698D1*
X8112Y8736D1*
X8074Y8774D1*
X8016Y8794D1*
X7978D1*
X7921Y8774D1*
X7882Y8736D1*
X7863Y8698D1*
Y8641D1*
X7882Y8602D1*
X7921Y8564D1*
X8131Y8969D2*
X7863D1*
X8016D2*
X8074Y8988D1*
X8112Y9026D1*
X8131Y9065D1*
Y9122D1*
Y9393D2*
X8112Y9355D1*
X8074Y9316D1*
X8016Y9297D1*
X7978D1*
X7921Y9316D1*
X7882Y9355D1*
X7863Y9393D1*
Y9450D1*
X7882Y9489D1*
X7921Y9527D1*
X7978Y9546D1*
X8016D1*
X8074Y9527D1*
X8112Y9489D1*
X8131Y9450D1*
Y9393D1*
X8265Y9798D2*
X8246Y9817D1*
X8265Y9836D1*
X8284Y9817D1*
X8265Y9798D1*
X8131Y9817D2*
X7806D1*
X7749Y9798D1*
X7730Y9760D1*
Y9721D1*
X8016Y10011D2*
Y10241D1*
X8054D1*
X8093Y10222D1*
X8112Y10203D1*
X8131Y10164D1*
Y10107D1*
X8112Y10069D1*
X8074Y10030D1*
X8016Y10011D1*
X7978D1*
X7921Y10030D1*
X7882Y10069D1*
X7863Y10107D1*
Y10164D1*
X7882Y10203D1*
X7921Y10241D1*
X8074Y10646D2*
X8112Y10607D1*
X8131Y10569D1*
Y10512D1*
X8112Y10473D1*
X8074Y10435D1*
X8016Y10416D1*
X7978D1*
X7921Y10435D1*
X7882Y10473D1*
X7863Y10512D1*
Y10569D1*
X7882Y10607D1*
X7921Y10646D1*
X8265Y10878D2*
X7940D1*
X7882Y10897D1*
X7863Y10935D1*
Y10974D1*
X8131Y10821D2*
Y10955D1*
X8074Y11359D2*
X8112Y11340D1*
X8131Y11282D1*
Y11225D1*
X8112Y11168D1*
X8074Y11148D1*
X8035Y11168D1*
X8016Y11206D1*
X7997Y11301D1*
X7978Y11340D1*
X7940Y11359D1*
X7921D1*
X7882Y11340D1*
X7863Y11282D1*
Y11225D1*
X7882Y11168D1*
X7921Y11148D1*
X7902Y11553D2*
X7882Y11534D1*
X7863Y11553D1*
X7882Y11572D1*
X7902Y11553D1*
X8074Y11977D2*
X8112Y11939D1*
X8131Y11900D1*
Y11843D1*
X8112Y11805D1*
X8074Y11767D1*
X8016Y11747D1*
X7978D1*
X7921Y11767D1*
X7882Y11805D1*
X7863Y11843D1*
Y11900D1*
X7882Y11939D1*
X7921Y11977D1*
X8131Y12248D2*
X8112Y12210D1*
X8074Y12171D1*
X8016Y12152D1*
X7978D1*
X7921Y12171D1*
X7882Y12210D1*
X7863Y12248D1*
Y12305D1*
X7882Y12344D1*
X7921Y12382D1*
X7978Y12401D1*
X8016D1*
X8074Y12382D1*
X8112Y12344D1*
X8131Y12305D1*
Y12248D1*
Y12576D2*
X7863D1*
X8054D2*
X8112Y12634D1*
X8131Y12672D1*
Y12729D1*
X8112Y12768D1*
X8054Y12787D1*
X7863D1*
X8054D2*
X8112Y12844D1*
X8131Y12883D1*
Y12940D1*
X8112Y12978D1*
X8054Y12998D1*
X7863D1*
M02*
