M48
INCH
T01C0.0354
%
T01
X+004437Y+013437
X+004437Y+012437
X+004437Y+011437
X+004437Y+010437
X+004437Y+009437
X+004437Y+008437
X+004437Y+007437
X+004437Y+006437
X+004437Y+005437
X+004437Y+004437
X+010437Y+004437
X+010437Y+005437
X+010437Y+006437
X+010437Y+007437
X+010437Y+008437
X+010437Y+009437
X+010437Y+010437
X+010437Y+011437
X+010437Y+012437
X+010437Y+013437
T00
M30
